/* XPM */
static char *S_Matty3[] = {
/* columns rows colors chars-per-pixel */
"32 32 131 2 ",
"   c #612F8F",
".  c #62308F",
"X  c #623190",
"o  c #633190",
"O  c #633291",
"+  c #643391",
"@  c #653592",
"#  c #663693",
"$  c #673693",
"%  c #673793",
"&  c #683894",
"*  c #683994",
"=  c #693A95",
"-  c #6A3B96",
";  c #6B3C96",
":  c #6C3D96",
">  c #6C3E97",
",  c #6D3F98",
"<  c #6E4098",
"1  c #6F4199",
"2  c #6F4299",
"3  c #70439A",
"4  c #71449A",
"5  c #73479C",
"6  c #74479C",
"7  c #75499D",
"8  c #754A9D",
"9  c #794FA0",
"0  c #7A50A1",
"q  c #7B51A1",
"w  c #7C52A2",
"e  c #7D55A3",
"r  c #7E55A4",
"t  c #8058A5",
"y  c #8159A6",
"u  c #825AA6",
"i  c #845DA8",
"p  c #865FA9",
"a  c #8660A9",
"s  c #8761AA",
"d  c #8964AC",
"f  c #8B66AD",
"g  c #8E6AAF",
"h  c #906DB0",
"j  c #916EB1",
"k  c #9473B3",
"l  c #9574B4",
"z  c #9674B4",
"x  c #9675B5",
"c  c #9877B6",
"v  c #9878B6",
"b  c #9979B7",
"n  c #9B7BB8",
"m  c #9D7EBA",
"M  c #9E80BA",
"N  c #A082BC",
"B  c #A184BD",
"V  c #A487BE",
"C  c #A588BF",
"Z  c #A589BF",
"A  c #A68AC0",
"S  c #A88CC1",
"D  c #A98EC2",
"F  c #AB91C4",
"G  c #AD93C5",
"H  c #AE94C5",
"J  c #AE95C6",
"K  c #AF96C6",
"L  c #B097C7",
"P  c #B299C8",
"I  c #B29AC9",
"U  c #B39BC9",
"Y  c #B49CCA",
"T  c #B59DCA",
"R  c #B59ECB",
"E  c #B8A2CD",
"W  c #BBA5CF",
"Q  c #BBA6CF",
"!  c #BDA8D0",
"~  c #BDA9D0",
"^  c #BFAAD1",
"/  c #C0ADD3",
"(  c #C2AED4",
")  c #C3B0D4",
"_  c #C4B1D5",
"`  c #C4B2D5",
"'  c #C7B5D7",
"]  c #CAB9D9",
"[  c #CABADA",
"{  c #CDBDDB",
"}  c #CDBEDC",
"|  c #CEBFDC",
" . c #CFC0DD",
".. c #D1C2DE",
"X. c #D2C3DF",
"o. c #D4C6E0",
"O. c #D9CCE4",
"+. c #DACEE5",
"@. c #DACFE5",
"#. c #DCD1E6",
"$. c #DDD2E7",
"%. c #DED4E8",
"&. c #DFD5E8",
"*. c #E0D6E9",
"=. c #E1D7E9",
"-. c #E1D8EA",
";. c #E2D9EA",
":. c #E3DAEB",
">. c #E5DDED",
",. c #E6DEED",
"<. c #E9E2EF",
"1. c #EAE3F0",
"2. c #EBE4F1",
"3. c #EEE8F3",
"4. c #F0EBF4",
"5. c #F1ECF5",
"6. c #F1EDF5",
"7. c #F2EEF6",
"8. c #F3EFF7",
"9. c #F4F1F8",
"0. c #F6F3F8",
"q. c #F6F4F9",
"w. c #F7F4F9",
"e. c #F8F6FA",
"r. c #F9F7FB",
"t. c #F9F8FB",
"y. c #FBF9FC",
"u. c #FBFAFC",
"i. c #FEFDFE",
"p. c #FEFEFF",
"a. c white",
/* pixels */
"                                                                ",
"                                                                ",
"                                                                ",
"                                                                ",
"                                                                ",
"                                          ; S K 5               ",
"                                      O B 7.a.p.i f _ W y       ",
"                                  = A 1.a.a.a.G % <.a.a.r.6     ",
"                              r ~ 0.a.a.a.i.V . ' a.a.a.a.k     ",
"                        * M $.a.a.a.a.a.e.z O _ a.a.a.a.a.0     ",
"                  @ f / w.a.a.a.a.a.a.:.0 @ } a.a.a.a.a.o.      ",
"              h { e.a.a.a.a.a.a.a.i.! $ 4 +.a.a.a.a.a.t.9       ",
"          :  .a.a.a.a.a.a.a.a.y...a   f 6.a.a.a.a.a.a.N         ",
"        : ;.a.a.a.a.y.*.) A p #   & R i.a.a.a.a.a.a.Q           ",
"      . X.a.r.] n w O   o 9 x U O.u.a.a.a.a.a.a.a.{ X           ",
"      b a.&.5 . u C P   n a.a.a.a.a.a.a.a.a.a.a.@.$             ",
"      =.4., s 1.a.a.a.D   B r.a.a.a.a.a.a.a.a.%.-               ",
"    6 a.Z % 8.a.a.a.a.a.( * i w.a.a.a.a.a.a.-.>                 ",
"    j p.2 m a.a.a.a.a.a.a.%.+ I a.a.a.a.a.,.<                   ",
"    l 2.  ! a.a.a.a.a.a.a.a.c y a.a.a.a.1.4                     ",
"    g @.   .a.a.a.a.a.a.a.a.F 3 a.a.a.3.8                       ",
"    3 #.  { a.a.a.a.a.a.a.p.t t a.a.5.9                         ",
"      X.$ g t.a.a.a.a.a.5.v   Y a.5.q                           ",
"      j / . 3 v D T C d @   e q.6.w                             ",
"        ^ | 3           . x 4.#.7                               ",
"        . H 0.[ J S F ` <.e.I +                                 ",
"            8 E >.r.9.*.L 1                                     ",
"                                                                ",
"                                                                ",
"                                                                ",
"                                                                ",
"                                                                "
};
